# xmcd
#
# Track frame offsets:
#	150
#	12137
#	26062
#	39980
#	53962
#	68190
#	81780
#	95622
#	109320
#	123015
#	137355
#	151060
#	165057
#	179090
#	195002
#	210142
#	224472
#	238792
#	252220
#	265315
#	278907
#	292170
#	305482
#	318622
#	332072
#
# Disc length: 4607 seconds
# Revision: 0
# Processed by: cddbd v1.5.2PL0 Copyright (c) Steve Scherf et al.
# Submitted via: dBpowerAMP V12.0
#
DISCID=5c11fd19
DTITLE=Various Artist - The Complete Hokum Boys and Bob Robinson
DYEAR=1935
DGENRE=
TTITLE0=Hokum Boys - Caught us doing it
TTITLE1=Hokum Boys - I ain`t going that way
TTITLE2=Hokum Boys - Keep your mind on it
TTITLE3=Hokum Boys - I`m gonna get it (take 1)
TTITLE4=Hokum Boys - I`m gonna get it (take 2)
TTITLE5=Hokum Boys - I`m gonna tell my mama on you
TTITLE6=Hokum Boys - Nancy Jane
TTITLE7=Chicago Five - I ain't gonna do it
TTITLE8=Chicago Five - I'm a gamblin' man
TTITLE9=Hokum Boys - Do you catch on
TTITLE10=Hokum Boys - Something good
TTITLE11=Hokum Boys - Every man for himself
TTITLE12=Hokum Boys - You can't have none of that
TTITLE13=Bob Robinson And His Bob-Cats - Down in the alley
TTITLE14=Bob Robinson And His Bob-Cats - Makin' a fool out of me
TTITLE15=Bob Robinson And His Bob-Cats - Can use it myself
TTITLE16=Bob Robinson And His Bob-Cats - She's a mellow thing
TTITLE17=Hokum Boys - Swing that thing
TTITLE18=Hokum Boys - Georgia mule
TTITLE19=Bob Robinson Trio - Crying for love
TTITLE20=Bob Robinson Trio - Heart-breaking blues
TTITLE21=Hokum Boys - It started in the Garden of Eden (take 1)
TTITLE22=Hokum Boys - It started in the Garden of Eden (take 2)
TTITLE23=Hokum Boys - Just diddling around
TTITLE24=Hokum Boys - You got your ribs out of pawn
EXTD=
EXTT0=
EXTT1=
EXTT2=
EXTT3=
EXTT4=
EXTT5=
EXTT6=
EXTT7=
EXTT8=
EXTT9=
EXTT10=
EXTT11=
EXTT12=
EXTT13=
EXTT14=
EXTT15=
EXTT16=
EXTT17=
EXTT18=
EXTT19=
EXTT20=
EXTT21=
EXTT22=
EXTT23=
EXTT24=
PLAYORDER=
